<svg version="1.1" id="Слой_1" xmlns="http://www.w3.org/2000/svg" x="0" y="0" viewBox="0 0 380 380" xml:space="preserve"><style>.st0{fill:#73695E}</style><g id="LogoV3_x21__2_"><path class="st0" d="M34.1 270.1c-.5 17.6 3.4 35.6 12.4 52.4v.1c1.2 2.3 4.6 2 5.4-.5 18.4-56 49.7-106.1 90.6-146.7 2.5-2.5.8-6.8-2.8-6.8h-.1c-4.7 0-9.4.3-13.9.9-.8.1-1.5.2-2.2.3-3.6.5-7.3 1.3-10.9 2.2-3.8 1-7.6-1.8-7.7-5.8l-2.2-153c-.1-3.7-2-7.6-7.6-7.6l-57.2.5c-3.4 0-6.5 2.6-6.7 6v.7L34.4 249c.1 7.1-.1 14.1-.3 21.1zm169.5-70.9c-48.9 43.2-86.3 99.2-107 162.8-1.2 3.7.7 7.8 4.3 9.3 12.7 5 26.6 7.6 41.1 7.3 55.6-1.3 102.3-49.1 102.4-104.7.1-29-11.6-55.3-30.5-74.3-2.8-2.9-7.3-3.1-10.3-.4z" id="Letter_B_8_"/><path class="st0" d="M304.3 52.1l-19.6-41.5c-1.2-2.6-3.9-4.3-6.7-4.3l-71.5-.4c-2.9 0-5.6 1.7-6.8 4.3L145 125.5c-2.4 5 1.3 10.7 6.8 10.7h13.5c1.8 0 3.4-.6 4.8-1.7 38-31.5 81.9-56.2 129.9-72 4.1-1.5 6.2-6.4 4.3-10.4zm-26.1 84.1h53.9c5.5 0 9.1-5.7 6.8-10.7l-5.8-12.3c-1.7-3.6-5.9-5.2-9.6-3.8-16.1 6.4-31.6 13.8-46.6 22.1-2.1 1.3-1.2 4.7 1.3 4.7z" id="Letter_A_6_"/></g></svg>