<?xml version="1.0" encoding="utf-8"?>
<svg xmlns="http://www.w3.org/2000/svg" version="1.1" viewBox="0 0 64 64" width="28" height="80">
  <g id="Web-cam">
    <path d="M44,24.25c0-6.6166992-5.3833008-12-12-12s-12,5.3833008-12,12c0,6.6166,5.3833008,12,12,12S44,30.8666,44,24.25z    M22,24.25c0-5.5142002,4.4857998-10,10-10s10,4.4857998,10,10c0,5.5140991-4.4858017,10-10,10S22,29.7640991,22,24.25z" fill="#707d88"/>
    <path d="M42.0890999,43.9135017C49.7271996,40.1688995,55,32.3146019,55,23.25c0-12.6822004-10.3179016-23-23-23   s-23,10.3177996-23,23c0,9.0646019,5.2728004,16.9188995,12.9109001,20.6635017l-6.5202999,13.9053001   c-0.6128006,1.3065987-0.5044003,2.8080978,0.2890997,4.0165977C16.4657993,63.0340996,17.8017006,63.75,19.2534008,63.75   h25.4932003c1.4515991,0,2.7875977-0.7159004,3.5732002-1.9141006c0.7939987-1.2089996,0.9023972-2.7104988,0.2896004-4.0170975   L42.0890999,43.9135017z M11,23.25c0-11.5796003,9.4204006-21,21-21s21,9.4203997,21,21c0,11.5794983-9.4203987,21-21,21   S11,34.8294983,11,23.25z M46.6474991,60.7387009C46.232399,61.3720016,45.5219994,61.75,44.7466011,61.75H19.2534008   c-0.7754002,0-1.4858017-0.3779984-1.9014015-1.0117989c-0.4095993-0.6240005-0.4662991-1.3973999-0.1507988-2.0698013   L23.7451,44.7118988C26.3092995,45.7015991,29.0911007,46.25,32,46.25s5.6907005-0.5484009,8.2549019-1.5381012   l6.5438995,13.956501C47.1142006,59.3408012,47.0575981,60.1142006,46.6474991,60.7387009z" fill="#707d88"/>
    <circle cx="35" cy="20.25" r="2" fill="#707d88"/>
    <path d="M33,30.25c0-0.5522995-0.4477997-1-1-1c-3.2886009,0-3.9916992-3.0678997-4.0209999-3.2050991   c-0.1128006-0.5381012-0.6371994-0.886301-1.1791992-0.7749004c-0.5410004,0.1107998-0.8901005,0.6385994-0.7798004,1.1800995   C26.3589001,28.1103001,28.0449009,31.25,32,31.25C32.5522003,31.25,33,30.8022003,33,30.25z" fill="#707d88"/>
  </g>
</svg>
