<svg version="1" xmlns="http://www.w3.org/2000/svg" width="933.333" height="933.333" viewBox="0 0 700.000000 700.000000"><path d="M343 66c-46.9 2.7-96.6 20.1-128.5 44.9-3.3 2.6-9.8 7.3-14.4 10.5-59.6 41.9-99.6 101.5-115.5 172.6-1.4 6.3-2.8 14.1-3.2 17.3l-.7 5.8-40.4 37C.5 390.7-.1 391.3.2 394.8c.2 2.4 1.1 4.1 2.8 5.3 2.3 1.7 5.9 1.9 40.3 2.5 25.2.5 38 1.1 38.6 1.8.5.6 1.9 5.8 3.1 11.6 6.8 32.2 20.7 65.7 38 91.7 40.6 61.1 102.5 99.7 178.3 111.5 19.1 2.9 58.1 3.6 77.7 1.4 51.8-6 101.3-24.7 142.2-53.7 39.1-27.9 70.3-65.2 88.3-105.9 13.8-31.1 21.7-71.3 20.1-102-3.2-58.9-4.2-72-7.2-94.5-4.3-32.8-12.9-65.6-22.1-83.9-6.3-12.7-11.6-18.9-24.6-29.4-56.1-45.1-112.3-72.1-170-81.6-13.5-2.3-40.9-4.8-47.7-4.4-1.4 0-8.1.4-15 .8zm7.5 18c43.1 4.1 79.1 19 123.5 51.3 19 13.9 50.1 39.1 63.5 51.5 48.7 45.2 81.2 97.4 89 143.2.5 2.9.2 2.6-1.8-2-1.3-3-3.8-7.8-5.5-10.5-1.7-2.8-5-8.4-7.3-12.5-25-44.6-73.8-98.1-126.3-138.4-48.4-37.2-100.3-63.2-146.1-73.4-18.1-4.1-23.9-4.7-45.2-4.7-11.7 0-21.3-.1-21.3-.1 0-.4 23.9-3.7 31.5-4.4 13.8-1.1 33.8-1.1 46 0zm-33.2 87.1c3.7 1.7 4.7 5 4.7 14.9 0 10.4-1.2 9.8 13 7.4 5.2-.9 16.1-1.7 24.2-1.7l14.8-.2v-6.7c0-11.6 2.3-13.8 14.5-13.8 12.8 0 14.5 1.9 14.5 16.4v9.2l6.9 2.2c10.5 3.4 25.7 11.3 34.6 17.9 14.7 11 34.6 34.2 36.1 41.9.9 4.9 0 11.9-2 14.9s-39.1 35-44.5 38.2c-6.6 4.2-17.1 2.4-22.7-3.9-1.2-1.2-3.8-5-5.9-8.2-5.8-9.3-13.7-17-20.5-20-9.2-4.2-19-5.9-29.5-5.2-13.2.8-18.9 2.2-29.5 7.4-7.8 3.8-11 6.1-17.6 12.7-7 7-8.9 9.7-13.2 18.6-8.1 16.7-11.1 33.7-9.3 51.6 2.3 22.3 9.3 38.3 22.2 51.2 12.8 12.9 27.4 19 47.4 19.8 17.8.8 28.2-2.4 41.9-12.7 5-3.9 8.2-7.5 13.5-15.4 3.9-5.7 8.2-11.3 9.7-12.5 6.2-4.9 15-4.7 22.2.3 2 1.4 12 9 22.2 16.8 20.2 15.6 23 19 23 27.6 0 5.1-1.2 7.7-9 18.5-12 16.8-24 28.7-38.5 38.2-10.5 6.9-16 9.6-27.6 13.4l-9.7 3.2-.3 12c-.4 11.8-.5 12.1-3.2 14.5-2.5 2.1-3.7 2.4-11.7 2.4-7.9 0-9.2-.3-11.6-2.4-2.6-2.2-2.8-3-3.2-11.7l-.4-9.4-14.7-.1c-8.2-.1-18.5-.9-23.6-1.8-14.6-2.6-13.5-3.3-13.5 8.6-.1 11.1-.7 13-5.4 14.8-3.9 1.4-14.1 1.2-18-.4-4.7-1.9-5.6-5.5-5.6-21.2V505l-6-3c-29.8-15-51.5-36.8-66.6-66.6-3.4-6.6-7.4-15.9-8.9-20.5s-3-8.9-3.2-9.5c-.3-.8 9.4-1.3 32.3-1.8 22.7-.5 33.2-1 34.2-1.8 2.4-2 3.3-5.7 2.1-8.1-.7-1.2-16.1-20.6-34.4-43.2-18.2-22.5-33.4-41.5-33.8-42.2-.4-.6.7-5.1 2.4-10 14.2-40.3 41.6-72.3 76.5-89.6l6.4-3.1v-15.1c.1-15.5.4-16.9 4.5-19.3 2.6-1.5 16.7-1.5 19.8-.1z"/></svg>