<svg version="1" xmlns="http://www.w3.org/2000/svg" width="933.333" height="933.333" viewBox="0 0 700.000000 700.000000"><path d="M344.1.7c-1.2.3-9.7 5.1-18.7 10.9-9 5.7-20.6 12.8-25.7 15.8-5 2.9-11.2 6.6-13.7 8-9.2 5.4-46.9 23.5-58 27.9-16.3 6.3-41.3 14.3-51 16.2-.8.2-3.3.8-5.5 1.4-4.7 1.2-23.1 4.7-29.5 5.6-2.5.3-5.6.8-7 1-1.4.2-5.6.7-9.5 1.1-3.8.3-7.8.8-8.9 1-1 .2-8.7.6-17 .9-29 1.1-30.2 1.2-34.8 4.1-5.5 3.5-6.3 4.3-9 9.5l-2.3 4.4v131c0 113.1.4 144.8 2 155 .2 1.1.6 4.2 1 7 .5 4.4 2.3 14.9 4 24 .3 1.6 1.1 4.8 1.7 7 .5 2.2 1.1 4.7 1.3 5.5 1.1 5.3 4.3 16.5 8.6 29.4 10.9 32.5 27.5 64.6 48.2 93.1 17 23.3 44.6 52.1 64.7 67.5 2.5 1.9 4.7 3.7 5 4 1.4 1.7 21.9 15.6 31.5 21.5 14.3 8.6 37.5 20.2 52.8 26.2 6.7 2.6 12.4 4.8 12.7 4.8.3.1 5.7 1.8 12 3.8 28.6 9.1 50.4 12.8 61 10.3 1.4-.3 5-1.1 8-1.7 17.6-3.5 40.4-10.4 59.9-18.1 14.3-5.6 42.1-19.8 55.7-28.4 33.5-21.3 64.4-49.2 89.1-80.6 5.3-6.6 24.3-34.2 24.3-35.2 0-.2 2.2-4.1 4.8-8.7 16.3-28.3 32.4-71.6 37.8-101.4.3-1.7.9-4.8 1.4-7 .4-2.2 1.1-6.3 1.5-9 .3-2.8 1-8.1 1.6-11.9 2.2-15.6 2.4-31.6 2.4-157.1 0-125.6-.1-131.2-1.9-134.7-2.3-4.7-6.8-9.2-11.3-11.3-3.6-1.7-7.5-2.1-33-3-8.9-.3-16.8-.7-17.5-1-.7-.2-4.4-.6-8.3-1-7-.6-8.6-.8-15.7-1.9-2.1-.3-5.3-.8-7-1.1-35.1-5.1-79.1-19.9-117.9-39.6-12-6.1-43.6-23.9-46.4-26.1-2.2-1.8-27.2-17.5-28.7-18.1-2.4-.9-11.9-1.6-14.7-1zM379 139c3.6.6 7.8 1.3 9.3 1.6 1.5.2 5.6 1.1 9 2 3.4.8 6.9 1.6 7.8 1.9 2.2.5 8.7 2.7 18.6 6.4 26.4 9.8 54.5 28.5 74.2 49.5 9.1 9.6 10.5 11.2 14.5 16.6 2.2 3 4.3 5.7 4.6 6 .7.6 6.6 9.8 10.1 15.5 6.1 10.2 18.6 38.9 20.4 46.9.2 1.2.9 4.1 1.6 6.6.6 2.5 1.3 5.4 1.5 6.5.2 1.1.7 3.1 1 4.5 3 14.4 4.8 47.7 3 58.5-.2 1.6-.7 5.2-1.1 8-1.2 9.4-1.7 12-4 21.5-5.4 21.4-13.9 41.3-25.5 60-16.2 26.3-42 51.5-69.1 67.7-24.3 14.6-54.4 24.8-81.9 27.9-16.2 1.8-43.4.9-60-2.1-26.8-4.7-59.5-18.6-81.8-34.9-22.2-16.1-41.8-36.8-55.2-58.5-15.3-24.7-25.8-53.4-29.5-80.7-1.7-12.3-2.2-38.7-1.1-47.4.3-1.9.8-6 1.2-9 .7-6.4 4.7-24.4 6.7-31 10.5-33.4 30.7-66.2 54-87.9 2.2-2 5.5-5.2 7.6-7.1 9-8.7 29.1-22 45-29.9 18.8-9.5 46.1-17.7 65.1-19.6 3.6-.4 6.7-.9 6.9-1.1.8-.8 41.1.5 47.1 1.6z"/><path d="M342 182.8c-22.8 1.7-44.1 7.3-62.3 16.3-7.6 3.9-20.7 11.6-21.7 12.8-.3.3-3.2 2.6-6.5 5.1-6.2 4.6-21.2 19.2-25.5 24.9-1.4 1.8-3.4 4.5-4.6 5.9-10.1 12.7-23.6 41.4-26 55.2-.3 1.4-.7 3.2-1 4-.6 1.6-.9 3.2-1.8 9.2-.3 2.1-.8 5.3-1.1 7-1.7 11.2-.9 36.1 1.5 48.4.6 2.8 1.3 6.2 1.5 7.7 1.2 6.2 7 22 11.6 31.7 4.8 9.8 14.8 26.2 16.9 27.5.5.3 5.7-2.8 11.7-6.9 17.9-12.2 37.5-21.6 57.4-27.6l7.6-2.3-5-4.5c-35.6-31.6-37.8-85.8-4.8-120.5 15.9-16.8 38.9-26 63-25.2 70.3 2.3 106.3 85.9 59.6 138.5-2.7 3-6.5 6.8-8.5 8.5l-3.7 3.1 11.6 3.7c21 6.7 41.6 17.2 58.7 29.9 2.8 2.1 5.4 3.8 5.7 3.8.5 0 7.1-9.1 10.4-14.5 3-4.8 9.5-18.1 12.2-24.7 7.5-19 11-39 10.5-60.3-.2-11.2-.6-15.4-1.9-22.5-.2-1.4-.6-4.1-.9-6-1.5-10.1-9.9-33.2-16.4-44.9-21.5-38.8-57.5-67-99.9-78.2-3.9-1-8.9-2.1-11-2.5-2.1-.3-4.9-.7-6.3-1-6-1.1-25.1-2.1-31-1.6z"/></svg>