<svg version="1" xmlns="http://www.w3.org/2000/svg" width="933.333" height="933.333" viewBox="0 0 700.000000 700.000000"><path d="M96.5 11c-33.7.5-33.6.5-37.1 6.4-1.5 2.6-1.8 5.1-1.8 14.6.1 13.3 1.4 108.6 1.9 143 .2 12.9.6 44.9 1 71 .3 26.1.8 60.5 1 76.5 1.4 95.1 1.7 117.1 1.7 155.5.1 30.7.5 44.9 1.4 51 .8 4.7 1.6 10 1.9 11.8 2.1 14 14.9 48.2 20.3 54.4 2.1 2.5 5.9 2.2 7.7-.5.8-1.3 3.1-6.8 4.9-12.3 7-20.6 12.3-33.7 23.7-58.9 6.7-14.8 20.6-42.5 24.6-48.7 1.2-2.1 2.3-4 2.3-4.2 0-.5 14.7-25.2 17-28.6 1-1.4 5.3-7.9 9.6-14.5s8.1-12.2 8.5-12.5c.3-.3 2.1-2.8 3.9-5.5 7.8-11.4 27.2-36 40.4-51 9.2-10.4 17-18.9 30.2-32.5 5.3-5.5 6.1-9 3.1-12.6-2.1-2.5-2.7-2.6-11.6-2.5-8.6.1-16.2.7-22.1 1.7-1.4.2-4.1.7-6 1-1.9.3-6.3 1.2-9.8 2-8.2 1.8-11.7 1.8-14.8-.2-4.7-3.1-5.2-5.7-5.4-24.9-.1-9.9-.3-27.9-.5-40-1-66-1.6-104.8-2-138-1.5-99.1-1.2-94.4-4.8-97.9-4.4-4.4-13.7-4.8-89.2-3.6zM375.2 12c-3.9 1.7-5.9 4.3-11.1 14.7-2.8 5.7-5.1 10.4-5.1 10.6 0 .2-3.8 8.2-8.3 17.8-4.6 9.6-9.9 20.5-11.7 24.4-9.2 19.6-11.7 25-17.3 36.5-3.3 6.9-7.7 16.1-9.7 20.5-2.1 4.4-6.1 12.9-9 19-2.9 6-6.7 14.1-8.5 18-1.8 3.8-9 18.9-15.9 33.5-13.2 27.7-14 30.4-11.1 36.3 3.1 6.4 5.4 7.2 22 7.5 9.1.3 16.4 0 18.6-.7 2.1-.6 9.4-5.6 16.3-11.1 21-16.6 30-23.2 54.6-39.5 13.9-9.2 33.7-21.5 34.6-21.5.2 0 2.8-1.6 5.8-3.5 11.2-7.2 61.2-31.8 78.5-38.7 4.2-1.6 9.4-3.8 11.6-4.8 2.2-1 10.5-4.1 18.5-7 8-2.9 17.5-6.3 21.2-7.7 7.7-2.8 11.3-6.3 12.3-12.1.7-4.2-.7-8.2-7.9-23-2-4-3.6-7.4-3.6-7.6 0-.2-4-8.7-8.8-18.7-4.9-10.1-10.6-22.2-12.7-26.9-4.2-9.1-7.5-13.6-11.5-15.2-3.3-1.4-138.6-2.1-141.8-.8zM598.5 201c-3 .7-17 6.3-25.5 10.2-2.5 1.1-8.1 3.6-12.5 5.6-11 4.8-48.6 24-50.7 26-2.2 1.9-2.3 4.6-.2 6.7 1.4 1.4 7 1.5 54.3 1.3l52.6-.3 3.1-2.2c3.5-2.5 6.3-8.4 5.9-12.3-.4-3.4-11.9-28.5-14-30.5-3.8-3.8-8.7-5.4-13-4.5zM383.5 363.6c-.5.1-2.1.5-3.5.8-1.4.3-3.7 1.5-5 2.7-23.7 21.3-45.5 43.3-65.5 66.3-29.6 34-54.8 70.5-82.3 119.1-4.5 7.9-23.1 46.2-26.7 55-2.1 4.9-4.6 10.8-5.6 13-5.6 12.5-17.9 48.4-17.4 51 .2 1.1.4 2.7.4 3.6.1.8 1.6 3.1 3.4 5 2.5 2.8 5.2 4.2 12.7 6.7 5.2 1.6 10.9 3.4 12.5 3.8 1.7.4 3.5.8 4 1 1.5.4 9.7 2.2 13 2.8 1.1.2 4.5.7 7.6 1 3.1.4 6.7.9 8 1.1 3.7.8 28.7.8 35.4 0 31.3-3.4 58.4-12.9 84.8-29.7 4.5-2.9 8.4-5.5 8.7-5.8.3-.3 3.4-2.8 7-5.5 9-6.7 28.5-26.5 35.5-36.1 11.7-15.7 20.7-32 27.2-48.8 3.7-9.7 8.6-27.9 9.8-36.1.4-2.8.9-6.1 1.1-7.5 1.3-9.1 1.8-31.4.9-39.5-.7-5.7-1.6-12.3-2.1-14.8-.2-1.2-.6-3.9-.9-6.2-.4-2.2-1.3-6.3-2.1-9.1s-1.6-6-1.8-7c-1.7-8.3-11.7-31.6-18.3-42.9-10.5-17.8-28.7-40.3-34.2-42.3-4.2-1.6-5.5-1.9-6.6-1.6z"/></svg>