<svg width="70" height="70" xmlns="http://www.w3.org/2000/svg">
 <defs>
  <linearGradient y2="0.499809" x2="1.000685" y1="0.499809" x1="0.000278" id="paint0_linear">
   <stop stop-color="#F1871D"/>
   <stop stop-color="#F84616" offset="1"/>
  </linearGradient>
  <linearGradient y2="0.49976" x2="0.999862" y1="0.49976" x1="0.000277" id="paint1_linear">
   <stop stop-color="#F1871D"/>
   <stop stop-color="#F84616" offset="1"/>
  </linearGradient>
  <linearGradient y2="0.311484" x2="0.667866" y1="1.011974" x1="0.357361" id="paint2_linear">
   <stop stop-opacity="0.7" stop-color="#A43605"/>
   <stop stop-opacity="0" stop-color="#F1871D" offset="1"/>
  </linearGradient>
 </defs>
 <g>
  <title>background</title>
  <rect fill="none" id="canvas_background" height="72" width="72" y="-1" x="-1"/>
 </g>
 <g>
  <title>Layer 1</title>
  <path id="svg_1" fill="#03F903" d="m19.7482,13.311991c-0.8373,-1.75809 16.957,-15.76948 38.6243,2.39738c5.1813,4.31525 5.0766,25.41235 3.5589,25.51885c-1.8841,0.0533 -0.5234,-16.1957 -9.2112,-23.4944c-4.2393,-3.62271 -9.3682,-4.36856 -13.4505,-5.00786c-11.2,-1.70481 -18.6317,2.45066 -19.5215,0.58603z" opacity="0.74"/>
  <path id="svg_2" fill="#3DE000" d="m19.9053,12.459461c-0.2093,-1.33188 9.7869,-6.60613 20.0972,-5.00787c23.185,3.56944 24.7551,33.03063 21.9813,33.72323c-3.6636,0.9057 -6.8037,-22.4822 -21.1439,-28.82191c-9.3159,-4.04892 -20.6729,1.75808 -20.9346,0.10655z" opacity="0.48"/>
  <path id="svg_3" fill="#B1EA00" d="m21.7893,11.607171c0.6803,-3.4629 18.684,-6.39304 30.0934,2.98341c7.8504,6.44634 12.8747,19.76514 10.4149,22.21584c-0.8897,0.9056 -3.1925,-2.7704 -24.5457,-16.0892c-11.4094,-7.13887 -16.2767,-7.40524 -15.9626,-9.11005z" opacity="0.74"/>
  <path id="svg_4" fill="#B1EA00" d="m49.8417,58.116521c-1.6224,3.1433 -24.4411,9.3765 -33.443,-0.9057c-6.69901,-7.6716 -10.4149,-20.2979 -6.3327,-21.8428c1.2038,-0.4262 2.8262,0 19.5739,18.9127c9.0018,10.1756 20.9868,2.2908 20.2018,3.8358z" opacity="0.74"/>
  <path id="svg_5" fill="#F4ED00" d="m25.6623,9.209761c-9.3159,3.56945 -16.2243,12.14676 -17.58505,22.53546l-7.85046,7.1921c-0.47103,0.4263 -0.15701,1.2254 0.47103,1.2254l7.53644,0.1598c2.25044,13.0524 13.34574,22.9616 26.74394,23.1747c15.1775,0.2132 27.8953,-12.5196 27.8953,-27.9695c0,-6.2865 -4.3963,-13.3721 -12.2468,-19.49872c-5.6523,-4.5284 -12.299,-9.96248 -24.9644,-6.81924z" opacity="0.74"/>
  <path id="svg_6" fill="#E88400" d="m25.6623,9.209761c-9.3159,3.56944 -16.2243,12.14676 -17.58505,22.53546l-7.85046,7.1921c-0.47103,0.4262 -0.15701,1.2254 0.47103,1.2254l7.53644,0.1598c2.25044,13.0524 12.56074,21.7363 26.01124,21.8961c15.1775,0.2131 29.5177,-11.2943 28.6803,-26.7442c-0.471,-8.2576 -21.3533,-29.88738 -37.2635,-26.26466z" opacity="0.74"/>
  <path id="svg_7" fill="url(#paint0_linear)" d="m25.6623,9.209791c-9.3159,3.56945 -16.2243,12.14673 -17.58505,22.53543l-7.85046,7.1922c-0.47103,0.4262 -0.15701,1.2253 0.47103,1.2253l7.53644,0.1598c3.76824,12.4132 11.14764,18.38 23.70834,20.5643c14.2879,2.4506 30.9309,-9.9092 30.9309,-25.4123c0,-5.7005 -7.5365,-9.4297 -14.8112,-15.2367c-6.4898,-5.22102 -12.0897,-12.99921 -22.4,-11.02803zm-4.8673,31.21933c0,-0.0533 0,-0.0533 0,0z"/>
  <path id="svg_8" fill="url(#paint1_linear)" d="m25.6623,9.209791c-9.3159,3.56945 -16.2243,12.14673 -17.58505,22.53543l-7.85046,7.1922c-0.47103,0.4262 -0.15701,1.2253 0.47103,1.2253l7.53644,0.1598c8.16444,13.0525 11.56634,16.6752 24.85984,18.6464c14.3925,2.1843 28.9943,-6.0734 29.8317,-23.4944c0.2617,-5.7005 -7.5364,-9.4297 -14.8112,-15.2367c-6.5421,-5.22102 -12.142,-12.99921 -22.4523,-11.02803z"/>
  <path id="svg_9" fill="url(#paint2_linear)" d="m22.6791,10.541761c-7.4841,3.99565 -12.92706,11.29436 -14.44482,20.03156l-0.15701,1.172l6.28033,-5.807c0.7327,-0.6926 1.9365,-0.586 2.5645,0.1598l3.8729,4.635c1.4131,-4.3686 4.6056,-8.0446 8.7402,-9.8027l-6.8561,-10.38866z"/>
  <path id="svg_10" fill="white" d="m48.1146,42.453621l-3.8206,-2.9302c-0.8897,-0.6926 -2.0934,-0.4795 -2.7215,0.4795l-0.6803,1.0655c-0.2617,0.4262 -0.5757,0.7991 -0.9421,1.0655c-0.4187,0.3197 -0.8374,0.6393 -1.2561,0.8524c-0.4187,0.2131 -0.8897,0.3729 -1.3084,0.4795c-0.471,0.1065 -0.8897,0.1598 -1.3084,0.1598c-1.2037,0 -2.2505,-0.2131 -3.1925,-0.586c-0.9421,-0.4262 -1.6748,-0.959 -2.3028,-1.6516c-0.628,-0.6925 -1.1514,-1.5449 -1.4654,-2.5039c-0.3664,-1.0122 -0.5757,-2.131 -0.5757,-3.3563c0,-1.2254 0.2093,-2.3441 0.5757,-3.3564c0.3663,-0.9589 0.8374,-1.8113 1.4654,-2.5039c0.628,-0.6926 1.3607,-1.2253 2.3028,-1.6515c0.8897,-0.4263 1.9888,-0.5861 3.1925,-0.5861c0.8374,0 1.6224,0.1598 2.4598,0.5328c0.6804,0.3196 1.2038,0.7991 1.6748,1.4917l0.7327,1.1188c0.628,0.9589 1.9364,1.172 2.7738,0.4262l3.7682,-3.1966c0.7851,-0.6393 0.8898,-1.8646 0.2617,-2.6637l-0.6803,-0.9057c-1.4131,-1.8646 -3.1402,-3.1965 -5.0767,-3.9956c-0.5233,-0.2131 -1.099,-0.4262 -1.6747,-0.5861l0,-1.7048c0,-0.4795 -0.3664,-0.8524 -0.8374,-0.8524l-1.2561,0c-0.471,0 -0.8374,0.3729 -0.8374,0.8524l0,1.2254c-0.4187,-0.0533 -0.8897,-0.0533 -1.3084,-0.0533c-1.3607,0 -2.6168,0.1598 -3.8729,0.4262l0,-1.7048c0,-0.4795 -0.3663,-0.8524 -0.8374,-0.8524l-1.256,0c-0.4711,0 -0.8374,0.3729 -0.8374,0.8524l0,2.717c-1.7795,0.7991 -3.4019,1.9179 -4.7103,3.3031c-1.4131,1.4917 -2.5121,3.2498 -3.2972,5.221c-0.2093,0.5327 -0.4187,1.1187 -0.5757,1.7048l6.8037,8.4175c0.3664,0.4262 0.0524,1.1187 -0.5233,1.1187l-6.2804,0.0533c0.157,0.586 0.314,1.1188 0.5234,1.6515c0.785,2.0245 1.8841,3.7826 3.2972,5.221c1.3084,1.3852 2.8785,2.4507 4.7102,3.2498l0,2.7171c0,0.4794 0.3664,0.8524 0.8374,0.8524l1.2561,0c0.471,0 0.8374,-0.373 0.8374,-0.8524l0,-1.7581c1.2561,0.2663 2.5121,0.4262 3.8729,0.4262c0.471,0 0.8897,0 1.3084,-0.0533l0,1.545c0,0.4795 0.3663,0.8524 0.8374,0.8524l1.256,0c0.4711,0 0.8374,-0.3729 0.8374,-0.8524l0,-2.0245c0.7327,-0.2131 1.4131,-0.4795 2.1458,-0.7458c2.0411,-0.959 3.8729,-2.4507 5.3383,-4.5284l0.6804,-0.959c0.6804,-0.8524 0.471,-2.0244 -0.314,-2.6637z"/>
 </g>
</svg>